<?xml version="1.0" encoding="utf-8" ?>
<svg baseProfile="full" height="100%" version="1.1" viewBox="0,0,1000,300" width="100%" xmlns="http://www.w3.org/2000/svg" xmlns:ev="http://www.w3.org/2001/xml-events" xmlns:xlink="http://www.w3.org/1999/xlink"><defs /><rect fill="white" height="300" width="1000" x="0" y="0" /><path d="M0,0 M372.8055114746094,50.40180969238281 L372.63775634765625,51.21680450439453 L372.36859130859375,52.67687225341797 L372.023193359375,54.73522186279297 L371.6719970703125,57.13608932495117 L371.3499755859375,59.7618293762207 L371.08544921875,62.46223449707031 L370.911865234375,65.10236358642578 L370.8635559082031,67.44622039794922 L370.941650390625,69.27539825439453 L371.1286315917969,70.4482421875 L371.33258056640625,71.01605224609375 L371.4840393066406,71.17079162597656 M372.18658447265625,47.65809631347656 L372.16839599609375,47.743438720703125 L372.161865234375,48.07091522216797 L372.21539306640625,48.75245666503906 L372.41961669921875,49.81062316894531 L372.8297119140625,51.11651611328125 L373.49017333984375,52.50501251220703 L374.3941955566406,53.774070739746094 L375.4931335449219,54.76671600341797 L376.7305908203125,55.365821838378906 L378.0773620605469,55.52122497558594 L379.46002197265625,55.21147918701172 L380.83782958984375,54.50636291503906 L382.14373779296875,53.48208999633789 L383.305908203125,52.242042541503906 L384.27239990234375,50.90085220336914 L385.026611328125,49.584449768066406 L385.56219482421875,48.387733459472656 L385.927734375,47.41342544555664 L386.1651916503906,46.70378112792969 L386.303466796875,46.29242706298828 L386.35113525390625,46.21455001831055 L386.3056640625,46.52991485595703 L386.1666259765625,47.29787063598633 L385.94903564453125,48.55438995361328 L385.6773376464844,50.265296936035156 L385.37677001953125,52.35011291503906 L385.0757141113281,54.697105407714844 L384.8059387207031,57.19887924194336 L384.5943603515625,59.75389099121094 L384.44818115234375,62.26054000854492 L384.3558044433594,64.60697937011719 L384.3166809082031,66.66090393066406 L384.3443603515625,68.2950439453125 L384.4548645019531,69.43567657470703 L384.595947265625,70.07974243164062 L384.71923828125,70.34420776367188 M396.7662353515625,57.53804016113281 L396.6390380859375,57.16531753540039 L396.287353515625,56.67656326293945 L395.6263427734375,56.26443099975586 L394.6407470703125,56.196353912353516 L393.3951416015625,56.57707977294922 L392.0250549316406,57.431697845458984 L390.6999206542969,58.691524505615234 L389.5712890625,60.249420166015625 L388.77471923828125,61.953433990478516 L388.37896728515625,63.6199836730957 L388.4077453613281,65.08918762207031 L388.819580078125,66.20833587646484 L389.5511169433594,66.85810089111328 L390.5114440917969,66.95903015136719 L391.62127685546875,66.49404907226562 L392.78277587890625,65.49657440185547 L393.92657470703125,64.09220123291016 L394.957275390625,62.43089294433594 L395.8070068359375,60.69468307495117 L396.4303894042969,59.07243347167969 L396.833740234375,57.71842575073242 L397.0359191894531,56.75382995605469 L397.09368896484375,56.27870178222656 L397.0444030761719,56.33356475830078 L396.9188537597656,56.92512893676758 L396.74774169921875,58.02264404296875 L396.57666015625,59.50371551513672 L396.4507141113281,61.19682693481445 L396.42529296875,62.90818405151367 L396.5320739746094,64.45356750488281 L396.7680969238281,65.70186614990234 L397.1284484863281,66.52194213867188 L397.57586669921875,66.83619689941406 L398.072021484375,66.65056610107422 L398.4925537109375,66.23500061035156 L398.7669982910156,65.83853149414062 M403.5247497558594,49.14359664916992 L403.5841064453125,49.3709716796875 L403.6392822265625,49.937095642089844 L403.6446533203125,50.94749450683594 L403.5557861328125,52.398292541503906 L403.39239501953125,54.221431732177734 L403.173095703125,56.298892974853516 L402.9229736328125,58.46870422363281 L402.672119140625,60.55792236328125 L402.4511413574219,62.37545394897461 L402.3001403808594,63.75127410888672 L402.28228759765625,64.5726318359375 L402.46148681640625,64.80038452148438 L402.88812255859375,64.43941497802734 L403.59234619140625,63.5648078918457 L404.5793762207031,62.3011589050293 L405.83880615234375,60.79863357543945 L407.2793273925781,59.24234390258789 L408.7616882324219,57.801395416259766 L409.946044921875,56.73106384277344 L410.6683044433594,56.11444091796875 M405.0643310546875,60.45845413208008 L405.1331787109375,60.976585388183594 L405.35894775390625,61.78936767578125 L405.794921875,62.77579879760742 L406.4864196777344,63.705352783203125 L407.3917236328125,64.50081634521484 L408.4296569824219,65.11151123046875 L409.3191833496094,65.51289367675781 L409.9071350097656,65.71292114257812 M414.798583984375,57.19200897216797 L414.81866455078125,57.510047912597656 L414.8185119628906,58.13971710205078 L414.77191162109375,59.101707458496094 L414.66998291015625,60.32211685180664 L414.5382080078125,61.75039291381836 L414.406005859375,63.301658630371094 L414.29632568359375,64.86140441894531 L414.264892578125,66.2335205078125 L414.34332275390625,67.21014404296875 L414.55206298828125,67.6642074584961 L414.79541015625,67.72268676757812 L414.9913635253906,67.59294891357422 M416.234619140625,50.18560028076172 L416.2915344238281,50.009395599365234 L416.38519287109375,49.83367919921875 L416.4819641113281,49.71065139770508 L416.54827880859375,49.69252395629883 M420.51641845703125,57.91931915283203 L420.5419616699219,57.99326705932617 L420.54644775390625,58.26361083984375 L420.4992980957031,58.84209442138672 L420.3699035644531,59.773338317871094 L420.1839294433594,61.019981384277344 L419.9801940917969,62.47247314453125 L419.8160400390625,63.9755859375 L419.7148742675781,65.37062072753906 L419.6943359375,66.5110092163086 L419.7398681640625,67.26471710205078 L419.8578796386719,67.54656219482422 L420.0540771484375,67.3022232055664 L420.3595886230469,66.52583312988281 L420.7793884277344,65.28511810302734 L421.3306884765625,63.71898651123047 L422.0084228515625,61.9954948425293 L422.8125915527344,60.27969741821289 L423.7281188964844,58.71475601196289 L424.74346923828125,57.417537689208984 L425.79473876953125,56.48149490356445 L426.80755615234375,55.98367691040039 L427.69317626953125,55.96356964111328 L428.37451171875,56.41135787963867 L428.8114013671875,57.298465728759766 L429.00604248046875,58.55873489379883 L428.978271484375,60.086814880371094 L428.7867431640625,61.75372314453125 L428.54022216796875,63.42893981933594 L428.3422546386719,64.952880859375 L428.2909851074219,66.21731567382812 L428.3515319824219,67.07738494873047 L428.4508361816406,67.5300064086914 M437.25262451171875,60.37915802001953 L437.2331848144531,59.90666580200195 L437.0775451660156,59.25009536743164 L436.6706237792969,58.60396194458008 L435.94024658203125,58.25863265991211 L434.9151611328125,58.32182693481445 L433.7218322753906,58.8327751159668 L432.54736328125,59.732994079589844 L431.5791015625,60.94074630737305 L430.95562744140625,62.29658508300781 L430.76165771484375,63.617271423339844 L431.0131530761719,64.73814392089844 L431.6773986816406,65.5245361328125 L432.6868896484375,65.8725357055664 L433.9564514160156,65.7387924194336 L435.3689880371094,65.11695861816406 L436.79815673828125,64.0743408203125 L438.11700439453125,62.7463493347168 L439.19439697265625,61.30923843383789 L439.95391845703125,59.926231384277344 L440.3737487792969,58.75910949707031 L440.47216796875,57.92461395263672 L440.3034362792969,57.52069091796875 L439.95367431640625,57.61519241333008 L439.4864807128906,58.237430572509766 L439.0027770996094,59.3427619934082 L438.59423828125,60.86086654663086 L438.32916259765625,62.68903732299805 L438.251708984375,64.7219467163086 L438.373291015625,66.86042785644531 L438.6527404785156,69.01585388183594 L439.0413818359375,71.09040832519531 L439.4488525390625,72.99653625488281 L439.76904296875,74.64895629882812 L439.9097900390625,75.98684692382812 L439.807373046875,76.97732543945312 L439.4332275390625,77.6175308227539 L438.79193115234375,77.9201889038086 L437.90618896484375,77.9030532836914 L436.8377685546875,77.59243774414062 L435.6925354003906,77.01891326904297 L434.6117858886719,76.21388244628906 L433.73675537109375,75.21045684814453 L433.15972900390625,74.05952453613281 L432.9781494140625,72.79061889648438 L433.2109375,71.492431640625 L433.8065185546875,70.25431060791016 L434.47003173828125,69.30610656738281 L434.97808837890625,68.73815155029297 M453.3080749511719,57.309120178222656 L453.2801208496094,57.5496826171875 L453.2282409667969,58.103302001953125 L453.1322021484375,59.04155731201172 L452.98687744140625,60.34616470336914 L452.7942810058594,61.95232009887695 L452.5826416015625,63.72364044189453 L452.3883972167969,65.47802734375 L452.2559814453125,67.02667236328125 L452.18707275390625,68.19554138183594 L452.16925048828125,68.87040710449219 L452.182373046875,69.00654602050781 L452.2239990234375,68.5989761352539 L452.3001708984375,67.65581512451172 L452.446533203125,66.24067687988281 L452.6974792480469,64.47296142578125 L453.0924987792969,62.50725173950195 L453.66552734375,60.527870178222656 L454.42681884765625,58.71635818481445 L455.3483581542969,57.21165466308594 L456.3750915527344,56.13137435913086 L457.4317626953125,55.55403137207031 L458.43878173828125,55.50743865966797 L459.3303527832031,55.98828887939453 L460.045166015625,56.96852493286133 L460.54083251953125,58.376129150390625 L460.7984619140625,60.10146713256836 L460.8396911621094,61.98432540893555 L460.71575927734375,63.80194091796875 L460.5133361816406,65.35264587402344 L460.31292724609375,66.48588562011719 L460.1728210449219,67.09899139404297 L460.1304626464844,67.15337371826172 L460.2015075683594,66.65177917480469 L460.408447265625,65.609130859375 L460.78173828125,64.14313507080078 L461.3433837890625,62.4383544921875 L462.09185791015625,60.69033432006836 L463.01531982421875,59.092010498046875 L464.04827880859375,57.777523040771484 L465.11431884765625,56.827613830566406 L466.1260986328125,56.312110900878906 L467.0054626464844,56.2770881652832 L467.6922912597656,56.726924896240234 L468.1786804199219,57.637027740478516 L468.45672607421875,58.926239013671875 L468.54046630859375,60.4727897644043 L468.46905517578125,62.12774658203125 L468.3163757324219,63.73403549194336 L468.16033935546875,65.12674713134766 L468.0842590332031,66.19282531738281 L468.08392333984375,66.85693359375 L468.1223449707031,67.1671142578125 M472.1473388671875,58.12906265258789 L472.20404052734375,58.43769836425781 L472.3218994140625,59.03333282470703 L472.5167236328125,59.900306701660156 L472.7870178222656,60.912742614746094 L473.1351318359375,61.96370315551758 L473.5572814941406,62.93231964111328 L474.04742431640625,63.724586486816406 L474.6297912597656,64.20979309082031 L475.30828857421875,64.29808807373047 L476.05279541015625,63.970970153808594 L476.6859130859375,63.48413848876953 L477.10089111328125,63.060997009277344 M479.480224609375,57.80227279663086 L479.61053466796875,57.64020538330078 L479.72808837890625,57.56836700439453 L479.7369689941406,57.764713287353516 L479.52862548828125,58.42559814453125 L479.0960388183594,59.57811737060547 L478.4734191894531,61.187225341796875 L477.73345947265625,63.15744400024414 L476.92218017578125,65.41631317138672 L476.1036376953125,67.85236358642578 L475.32342529296875,70.36614990234375 L474.6326904296875,72.83149719238281 L474.085693359375,75.0784683227539 L473.7180480957031,76.92938232421875 L473.520263671875,78.1769027709961 L473.4503479003906,78.81956481933594 M493.72027587890625,55.76655578613281 L493.5610656738281,56.373138427734375 L493.3026428222656,57.470855712890625 L492.98480224609375,59.01797103881836 L492.6904296875,60.79299545288086 L492.47723388671875,62.64834213256836 L492.3900451660156,64.41185760498047 L492.4539794921875,65.92379760742188 L492.6935119628906,67.01917266845703 L493.1126403808594,67.57383728027344 L493.68505859375,67.51371765136719 L494.3948059082031,66.84526062011719 L495.19720458984375,65.65841674804688 L496.03271484375,64.11833190917969 L496.8427429199219,62.444950103759766 L497.55633544921875,60.85468292236328 L498.10040283203125,59.50201416015625 L498.4644470214844,58.4899787902832 L498.64971923828125,57.894203186035156 L498.6895751953125,57.77006912231445 L498.6474609375,58.161155700683594 L498.5744934082031,59.05879592895508 L498.53228759765625,60.36577224731445 L498.5980224609375,61.90990447998047 L498.8348388671875,63.48567581176758 L499.2840576171875,64.88422393798828 L499.95721435546875,65.93556213378906 L500.80657958984375,66.5169677734375 L501.773193359375,66.5663833618164 L502.7873840332031,66.06810760498047 L503.7991027832031,65.06413269042969 L504.75927734375,63.654029846191406 L505.619140625,61.97770690917969 L506.3246765136719,60.18996810913086 L506.8509216308594,58.45872116088867 L507.19171142578125,56.91426467895508 L507.3951416015625,55.70734786987305 L507.5203552246094,54.94294738769531 L507.62396240234375,54.65346908569336 L507.71063232421875,54.676414489746094 L507.77716064453125,54.82533264160156 M517.4301147460938,58.13459396362305 L517.2997436523438,57.71304702758789 L516.938720703125,57.096378326416016 L516.2498779296875,56.475250244140625 L515.2078857421875,56.148841857910156 L513.8731079101562,56.26921081542969 L512.3682861328125,56.91444396972656 L510.8596496582031,58.041900634765625 L509.534423828125,59.530616760253906 L508.5703125,61.20105743408203 L508.09442138671875,62.83887481689453 L508.159423828125,64.23983764648438 L508.7299499511719,65.25149536132812 L509.7193908691406,65.77168273925781 L510.9974365234375,65.75446319580078 L512.4336547851562,65.21826171875 L513.8998413085938,64.23677062988281 L515.2750854492188,62.918418884277344 L516.457275390625,61.42031478881836 L517.3828125,59.92595291137695 L518.0228271484375,58.61017608642578 L518.3845825195312,57.60966491699219 L518.5066528320312,57.0284423828125 L518.42724609375,56.91450119018555 L518.172607421875,57.29413986206055 L517.7782592773438,58.17564392089844 L517.3116455078125,59.484703063964844 L516.8624267578125,61.055389404296875 L516.59033203125,62.67388153076172 L516.611572265625,64.1041488647461 L516.9462890625,65.17204284667969 L517.388427734375,65.81229400634766 L517.7545166015625,66.09325408935547 M522.9427490234375,56.57194519042969 L522.965087890625,56.87250518798828 L523.052001953125,57.489158630371094 L523.2578735351562,58.426490783691406 L523.6387939453125,59.549354553222656 L524.2384033203125,60.6943359375 L525.0541381835938,61.684139251708984 L526.0592041015625,62.389461517333984 L527.2054443359375,62.72581481933594 L528.430419921875,62.647804260253906 L529.664794921875,62.150550842285156 L530.8321533203125,61.29192352294922 L531.8524169921875,60.18362045288086 L532.6607055664062,59.0022087097168 L533.2138671875,57.932701110839844 L533.5054321289062,57.14141845703125 L533.5376586914062,56.73912811279297 L533.3258666992188,56.80983352661133 L532.8800659179688,57.39094161987305 L532.22705078125,58.50175094604492 L531.3978271484375,60.11201477050781 L530.4520263671875,62.175994873046875 L529.4384155273438,64.59156036376953 L528.4326171875,67.23931884765625 L527.4735107421875,70.01863861083984 L526.6156616210938,72.76676940917969 L525.8950805664062,75.2990951538086 L525.3948974609375,77.19931030273438 L525.115478515625,78.31161499023438 M553.7420654296875,58.69033432006836 L553.4951171875,58.24444580078125 L552.9725952148438,57.612884521484375 L552.1104125976562,56.98410415649414 L550.92626953125,56.656681060791016 L549.4580688476562,56.763248443603516 L547.7909545898438,57.34723663330078 L546.0660400390625,58.36351776123047 L544.46728515625,59.746482849121094 L543.176513671875,61.3704833984375 L542.3516845703125,63.100711822509766 L542.0738525390625,64.7889404296875 L542.3485107421875,66.26805877685547 L543.122314453125,67.38909912109375 L544.3081665039062,68.04252624511719 L545.794921875,68.15629577636719 L547.5291137695312,67.59381103515625 L549.3926391601562,66.34143829345703 L551.2509765625,64.50959777832031 L552.7211303710938,62.74184036254883 L553.6240844726562,61.491676330566406 M555.9478759765625,45.0 L555.8545532226562,45.15532684326172 L555.6626586914062,45.66067123413086 L555.3544921875,46.670654296875 L554.9630126953125,48.22380447387695 L554.5384521484375,50.22584533691406 L554.1279296875,52.54457092285156 L553.7592163085938,55.03126525878906 L553.4473266601562,57.56657409667969 L553.1851806640625,60.0214729309082 L552.9808349609375,62.26004409790039 L552.8577270507812,64.15179443359375 L552.9265747070312,65.5560531616211 L553.276611328125,66.37914276123047 L553.9349365234375,66.62203979492188 L554.6446533203125,66.51091766357422 L555.189208984375,66.2900619506836 M563.9639892578125,57.58263397216797 L563.8248291015625,57.178619384765625 L563.5025634765625,56.640018463134766 L562.9391479492188,56.160560607910156 L562.1339111328125,56.01980972290039 L561.1312866210938,56.32615280151367 L560.0408935546875,57.11488342285156 L559.0079956054688,58.32482147216797 L558.1954956054688,59.8471794128418 L557.7511596679688,61.500450134277344 L557.7788696289062,63.08697509765625 L558.3140258789062,64.42024230957031 L559.3378295898438,65.35855865478516 L560.751953125,65.80520629882812 L562.3906860351562,65.7035903930664 L564.0556030273438,65.03379821777344 L565.532470703125,63.84290313720703 L566.62646484375,62.24816131591797 L567.2218627929688,60.441734313964844 L567.294921875,58.644779205322266 L566.880859375,57.09282684326172 L566.119140625,55.950103759765625 L565.1868896484375,55.28184127807617 L564.3862915039062,55.003692626953125 L563.8759155273438,54.960208892822266 M571.7245483398438,56.74650955200195 L571.6109619140625,56.74846649169922 L571.39892578125,56.924072265625 L571.0982666015625,57.42864227294922 L570.754150390625,58.36040115356445 L570.410400390625,59.68202590942383 L570.1322631835938,61.273685455322266 L569.9795532226562,62.95446014404297 L570.0196533203125,64.53639221191406 L570.315673828125,65.84605407714844 L570.8846435546875,66.72008514404297 L571.7084350585938,67.05084991455078 L572.7320556640625,66.7816390991211 L573.8656005859375,65.93367004394531 L575.015869140625,64.60758972167969 L576.09619140625,62.956756591796875 L577.0247192382812,61.15168380737305 L577.7467041015625,59.38090515136719 L578.2393798828125,57.800655364990234 L578.5198974609375,56.53946304321289 L578.6170654296875,55.69588851928711 L578.5548095703125,55.344017028808594 L578.3570556640625,55.530723571777344 L578.0362548828125,56.281158447265625 L577.637939453125,57.562686920166016 L577.24755859375,59.25739288330078 L576.9700927734375,61.169376373291016 L576.9039306640625,63.064327239990234 L577.1279296875,64.72064208984375 L577.6604614257812,65.9536361694336 L578.481689453125,66.65227508544922 L579.530517578125,66.76554107666016 L580.7406005859375,66.30046081542969 L582.0069580078125,65.31029510498047 L583.224853515625,63.903682708740234 L584.26513671875,62.22383117675781 L585.0065307617188,60.43455123901367 L585.3900756835938,58.722389221191406 L585.4572143554688,57.245826721191406 L585.3526611328125,56.20970153808594 L585.2247314453125,55.644474029541016 M590.0030517578125,57.32399368286133 L589.9258422851562,57.84515380859375 L589.756591796875,58.78724670410156 L589.4795532226562,60.10414505004883 L589.1123046875,61.59981918334961 L588.6998291015625,63.145164489746094 L588.3051147460938,64.59784698486328 L588.0028076171875,65.8429946899414 L587.8301391601562,66.74122619628906 L587.7994995117188,67.1650161743164 L587.8948364257812,67.04044342041016 L588.1112060546875,66.3576889038086 L588.4486083984375,65.18297576904297 L588.9337158203125,63.65910720825195 L589.5777587890625,61.94792175292969 L590.3823852539062,60.20016098022461 L591.3302612304688,58.559791564941406 L592.3975219726562,57.14464569091797 L593.531005859375,56.04622268676758 L594.660888671875,55.335533142089844 L595.703857421875,55.056724548339844 L596.5744018554688,55.231563568115234 L597.2138671875,55.85634994506836 L597.5938720703125,56.90406799316406 L597.711181640625,58.30213928222656 L597.5933837890625,59.93815994262695 L597.31298828125,61.67664337158203 L596.9574584960938,63.39097213745117 L596.6597900390625,64.9072036743164 L596.5193481445312,66.0766372680664 L596.5848388671875,66.80105590820312 L596.756103515625,67.12545013427734 L596.9299926757812,67.18635559082031 M605.9593505859375,46.59803009033203 L606.0128173828125,46.61762237548828 L606.029541015625,46.880287170410156 L605.9559936523438,47.56920623779297 L605.746826171875,48.78804016113281 L605.4367065429688,50.48261260986328 L605.045654296875,52.551612854003906 L604.6279296875,54.87281799316406 L604.2174072265625,57.32223892211914 L603.8602294921875,59.77302551269531 L603.5771484375,62.065547943115234 L603.3999633789062,64.06221008300781 L603.3172607421875,65.591064453125 L603.3233642578125,66.5341796875 L603.3896484375,66.84977722167969 L603.4724731445312,66.76416015625 L603.530029296875,66.52885437011719 M600.14892578125,56.935447692871094 L600.1182861328125,56.896671295166016 L600.2452392578125,56.874202728271484 L600.6895141601562,56.89881896972656 L601.5940551757812,56.992523193359375 L602.9613037109375,57.14341354370117 L604.7088623046875,57.319637298583984 L606.6895141601562,57.47773742675781 L608.755615234375,57.58176040649414 L610.7218627929688,57.6130256652832 L612.4464111328125,57.580196380615234 L613.6763916015625,57.52729797363281 L614.3627319335938,57.48783493041992 M617.8231811523438,57.8601188659668 L617.4393310546875,57.63301086425781 L616.717041015625,57.38448715209961 L615.6488647460938,57.27365493774414 L614.356689453125,57.505943298339844 L612.935546875,58.145103454589844 L611.535400390625,59.18012619018555 L610.3336791992188,60.519710540771484 L609.50830078125,62.04096984863281 L609.1845703125,63.5699348449707 L609.4337158203125,64.94020080566406 L610.23291015625,65.99108123779297 L611.5031127929688,66.60185241699219 L613.1278076171875,66.70032501220703 L614.916748046875,66.26126861572266 L616.6424560546875,65.31107330322266 L618.0992431640625,63.9509391784668 L619.1216430664062,62.33857345581055 L619.6338500976562,60.67445755004883 L619.681396484375,59.14725875854492 L619.3473510742188,57.92323303222656 L618.7735595703125,57.10707092285156 L618.1290283203125,56.719459533691406 L617.609375,56.6345329284668 L617.2964477539062,56.697296142578125 M624.4561157226562,56.75394821166992 L624.4365844726562,56.36240768432617 L624.4159545898438,55.923641204833984 L624.3695068359375,55.66038131713867 L624.2626953125,55.84453582763672 L624.054443359375,56.53653335571289 L623.731201171875,57.70072555541992 L623.3369750976562,59.221370697021484 L622.9763793945312,60.995567321777344 L622.7389526367188,62.83260726928711 L622.7161254882812,64.53404998779297 L622.9674682617188,65.9320297241211 L623.4924926757812,66.883544921875 L624.2806396484375,67.30378723144531 L625.2916259765625,67.16105651855469 L626.447509765625,66.46004486083984 L627.6669311523438,65.28271484375 L628.8436889648438,63.79582595825195 L629.845947265625,62.213932037353516 L630.599609375,60.7586784362793 L631.0609741210938,59.58405303955078 L631.2490234375,58.77494812011719 L631.2362060546875,58.380821228027344 L631.0899658203125,58.43844985961914 L630.8556518554688,58.97514343261719 L630.6011962890625,59.980506896972656 L630.3775024414062,61.344966888427734 L630.2643432617188,62.88979721069336 L630.3519287109375,64.4144287109375 L630.6954956054688,65.73640441894531 L631.3101806640625,66.72850036621094 L632.1688232421875,67.31396484375 L633.1922607421875,67.4395523071289 L634.2884521484375,67.07720184326172 L635.35791015625,66.24443817138672 L636.3104858398438,65.01741027832031 L637.074462890625,63.510520935058594 L637.5860595703125,61.868038177490234 L637.8259887695312,60.23342514038086 L637.810302734375,58.71750259399414 L637.58544921875,57.41253662109375 L637.2452392578125,56.399085998535156 L636.8829345703125,55.705055236816406 L636.59765625,55.32004165649414 L636.434814453125,55.16796875 M643.50390625,55.54288864135742 L643.4669799804688,55.66214370727539 L643.3805541992188,56.00654602050781 L643.2021484375,56.67372512817383 L642.9134521484375,57.678829193115234 L642.5093383789062,58.97797393798828 L642.021240234375,60.49033737182617 L641.515625,62.10686492919922 L641.069580078125,63.68013000488281 L640.717529296875,65.05777740478516 L640.4843139648438,66.08473205566406 L640.366455078125,66.66789245605469 L640.3486328125,66.7652359008789 L640.4244995117188,66.37556457519531 L640.607666015625,65.52108001708984 L640.9051513671875,64.29049682617188 L641.3265380859375,62.80315017700195 L641.8831787109375,61.20282745361328 L642.5878295898438,59.61705017089844 L643.451171875,58.1501579284668 L644.491455078125,56.888160705566406 L645.6878662109375,55.9320182800293 L646.9827880859375,55.353790283203125 L648.2874755859375,55.20444869995117 L649.4986572265625,55.49895477294922 L650.5213623046875,56.216983795166016 L651.2872314453125,57.306095123291016 L651.7509155273438,58.68825149536133 L651.9261474609375,60.28319549560547 L651.869384765625,62.01578903198242 L651.668701171875,63.81793975830078 L651.4222412109375,65.62699890136719 L651.2405395507812,67.35639953613281 L651.203125,68.86846160888672 L651.3574829101562,70.06227111816406 L651.595458984375,70.83114624023438 L651.81103515625,71.20457458496094 " fill="none" stroke="black" stroke-linecap="round" stroke-width="2" /><path d="M0,0 M444.3994140625,106.21798706054688 L444.3445129394531,106.1550064086914 L444.2873229980469,106.21406555175781 L444.2498474121094,106.56776428222656 L444.2484130859375,107.38809967041016 L444.2581481933594,108.72004699707031 L444.2649230957031,110.54377746582031 L444.2601623535156,112.78777313232422 L444.2701110839844,115.33238983154297 L444.3437805175781,118.02005004882812 L444.54144287109375,120.66443634033203 L444.908935546875,123.044921875 L445.4907531738281,124.976806640625 L446.27801513671875,126.319091796875 L447.2310791015625,126.96165466308594 L448.2940979003906,126.84722137451172 L449.4108581542969,125.9819107055664 L450.49920654296875,124.42017364501953 L451.50128173828125,122.30758666992188 L452.35888671875,119.83451080322266 L453.04571533203125,117.20455932617188 L453.54766845703125,114.63217163085938 L453.8887634277344,112.32473754882812 L454.08746337890625,110.43374633789062 L454.1820983886719,109.1065444946289 L454.2066345214844,108.43344116210938 L454.1926574707031,108.47003936767578 L454.1462707519531,109.24365234375 L454.06884765625,110.73766326904297 L453.9623718261719,112.8490219116211 L453.85540771484375,115.44815063476562 L453.7944030761719,118.34132385253906 L453.848876953125,121.31298828125 L454.0826416015625,124.13526153564453 L454.5214538574219,126.59308624267578 L455.15570068359375,128.5101776123047 L455.93402099609375,129.76673889160156 L456.7914123535156,130.28927612304688 L457.6871337890625,130.04124450683594 L458.6000061035156,129.021728515625 L459.51287841796875,127.28980255126953 L460.4139099121094,124.98202514648438 L461.2481994628906,122.26959991455078 L461.95892333984375,119.34945678710938 L462.49749755859375,116.41896057128906 L462.8250732421875,113.65264892578125 L462.9300231933594,111.19822692871094 L462.83599853515625,109.16217803955078 L462.5718994140625,107.6715316772461 L462.2122497558594,106.80233001708984 L461.8420715332031,106.56915283203125 L461.55645751953125,106.72197723388672 L461.3939208984375,106.99468231201172 M469.1611633300781,121.12691497802734 L469.09564208984375,120.56877899169922 L468.9007568359375,119.68693542480469 L468.5206298828125,118.65498352050781 L467.9251708984375,117.79319763183594 L467.139892578125,117.27494049072266 L466.2309265136719,117.22611236572266 L465.2901306152344,117.7051010131836 L464.395751953125,118.71564483642578 L463.6266174316406,120.18412017822266 L463.04119873046875,121.95721435546875 L462.707763671875,123.82136535644531 L462.6872253417969,125.54000854492188 L463.0151672363281,126.90901947021484 L463.6637878417969,127.75606536865234 L464.5655212402344,127.9820785522461 L465.6190185546875,127.55607604980469 L466.722900390625,126.52485656738281 L467.7921142578125,125.00762176513672 L468.75469970703125,123.183837890625 L469.5423583984375,121.28365325927734 L470.1163024902344,119.55096435546875 L470.46826171875,118.16798400878906 L470.62469482421875,117.26070404052734 L470.6336975097656,116.89199829101562 L470.5569763183594,117.0792465209961 L470.4369812011719,117.83695983886719 L470.3087463378906,119.14065551757812 L470.2080383300781,120.88475799560547 L470.16119384765625,122.89563751220703 L470.19268798828125,124.94136810302734 L470.33868408203125,126.81382751464844 L470.636962890625,128.27822875976562 L471.089111328125,129.17401123046875 L471.6595764160156,129.44573974609375 L472.172119140625,129.3218536376953 L472.51422119140625,129.05860900878906 M476.0062255859375,107.68119049072266 L475.9473571777344,107.92860412597656 L475.8587646484375,108.55500030517578 L475.7373352050781,109.67881774902344 L475.6000061035156,111.3050537109375 L475.4513244628906,113.35832214355469 L475.316650390625,115.71029663085938 L475.22613525390625,118.21265411376953 L475.22125244140625,120.7113037109375 L475.29913330078125,122.9990234375 L475.4454345703125,124.88639831542969 L475.59124755859375,126.15426635742188 L475.69561767578125,126.80694580078125 M480.8420715332031,107.15139770507812 L480.84124755859375,107.38966369628906 L480.832763671875,107.99662017822266 L480.7967529296875,109.0875244140625 L480.72674560546875,110.65475463867188 L480.63641357421875,112.61713409423828 L480.537841796875,114.843994140625 L480.45965576171875,117.20630645751953 L480.4318542480469,119.58415222167969 L480.4503479003906,121.86365509033203 L480.5028991699219,123.91380310058594 L480.55316162109375,125.63986206054688 L480.58416748046875,126.91302490234375 L480.5976257324219,127.66028594970703 L480.62103271484375,127.8853988647461 L480.654296875,127.79691314697266 L480.6924133300781,127.603271484375 M485.3427429199219,118.3360366821289 L485.17803955078125,118.09850311279297 L484.8220520019531,117.87811279296875 L484.2380676269531,117.85773468017578 L483.45867919921875,118.22399139404297 L482.54644775390625,118.9738540649414 L481.60772705078125,120.02925109863281 L480.7879333496094,121.25968170166016 L480.20587158203125,122.54591369628906 L479.9451904296875,123.76847076416016 L480.0462646484375,124.8089370727539 L480.4979553222656,125.57695007324219 L481.25897216796875,126.01468658447266 L482.3119201660156,126.1089096069336 L483.6033935546875,125.88656616210938 L485.0592346191406,125.38414764404297 L486.5792541503906,124.63417053222656 L488.04083251953125,123.6812744140625 L489.32684326171875,122.57290649414062 L490.3793029785156,121.3850326538086 L491.16278076171875,120.23202514648438 L491.6870422363281,119.21258544921875 L491.9810791015625,118.41451263427734 L492.0980224609375,117.91452026367188 L492.08624267578125,117.76050567626953 L491.9992370605469,117.9864273071289 L491.8648986816406,118.62580871582031 L491.70965576171875,119.65291595458984 L491.55926513671875,120.992431640625 L491.4574279785156,122.53177642822266 L491.44366455078125,124.11577606201172 L491.5442810058594,125.59400177001953 L491.75701904296875,126.79032135009766 L492.0441589355469,127.55919647216797 L492.35272216796875,127.83992004394531 L492.59967041015625,127.79505920410156 L492.74945068359375,127.6219482421875 M492.3150634765625,109.82186889648438 L492.3106384277344,109.75740051269531 L492.3260192871094,109.72367858886719 L492.3533935546875,109.72610473632812 L492.3848876953125,109.77008056640625 M497.3960266113281,117.01126861572266 L497.380859375,117.25253295898438 L497.3082580566406,117.7915267944336 L497.1514892578125,118.69556427001953 L496.919189453125,119.93182373046875 L496.66180419921875,121.41654205322266 L496.43096923828125,123.01388549804688 L496.26715087890625,124.57001495361328 L496.17767333984375,125.92532348632812 L496.1539611816406,126.97900390625 L496.17620849609375,127.669921875 L496.22259521484375,127.95835876464844 L496.28973388671875,127.81017303466797 L496.3917236328125,127.19449615478516 L496.572021484375,126.09732055664062 L496.89593505859375,124.60950469970703 L497.41082763671875,122.87787628173828 L498.1397705078125,121.08370971679688 L499.0731201171875,119.40373992919922 L500.154541015625,117.98731231689453 L501.3141174316406,116.9466552734375 L502.4559326171875,116.37725830078125 L503.4876403808594,116.32990264892578 L504.3370361328125,116.82093811035156 L504.9508361816406,117.80870056152344 L505.305419921875,119.19402313232422 L505.42449951171875,120.84151458740234 L505.35272216796875,122.5879135131836 L505.19805908203125,124.25918579101562 L505.0706787109375,125.6998291015625 L505.046142578125,126.79044342041016 L505.10101318359375,127.45853424072266 L505.18280029296875,127.76438903808594 M513.8004150390625,118.58473205566406 L513.6895751953125,118.27580261230469 L513.3912353515625,117.88896942138672 L512.83056640625,117.597412109375 L511.9932556152344,117.62213897705078 L510.93572998046875,118.03197479248047 L509.7728271484375,118.81057739257812 L508.6767578125,119.88272857666016 L507.8243103027344,121.14189910888672 L507.38287353515625,122.44668579101562 L507.45758056640625,123.63053894042969 L508.0668029785156,124.54786682128906 L509.1375732421875,125.06307220458984 L510.54168701171875,125.1160659790039 L512.1040649414062,124.70643615722656 L513.6510620117188,123.90660858154297 L515.0046997070312,122.83296203613281 L516.0193481445312,121.64246368408203 L516.6331176757812,120.4759521484375 L516.8663940429688,119.45661926269531 L516.7944946289062,118.67263793945312 L516.5355224609375,118.20697784423828 L516.1889038085938,118.1247329711914 L515.836669921875,118.48899841308594 L515.5552368164062,119.33967590332031 L515.4091796875,120.6624984741211 L515.4158325195312,122.38663482666016 L515.5718994140625,124.4207763671875 L515.835205078125,126.64409637451172 L516.1497802734375,128.94784545898438 L516.431640625,131.227294921875 L516.6182861328125,133.375 L516.6429443359375,135.2876739501953 L516.47412109375,136.885498046875 L516.1056518554688,138.11068725585938 L515.559326171875,138.9557342529297 L514.8365478515625,139.42747497558594 L513.9535522460938,139.53701782226562 L512.9437255859375,139.2982940673828 L511.8872985839844,138.74879455566406 L510.9334411621094,137.89263916015625 L510.2348327636719,136.79971313476562 L509.8843688964844,135.57534790039062 L509.8072204589844,134.53672790527344 L509.8687438964844,133.8613739013672 M538.6346435546875,109.50575256347656 L538.526611328125,108.78970336914062 L538.2788696289062,107.73778533935547 L537.8440551757812,106.57340240478516 L537.206787109375,105.66059875488281 L536.3687744140625,105.10419464111328 L535.3770141601562,105.0 L534.3082885742188,105.38201141357422 L533.2464599609375,106.3263931274414 L532.28662109375,107.85355377197266 L531.4983520507812,109.91881561279297 L530.9347534179688,112.42349243164062 L530.6275024414062,115.23377990722656 L530.5700073242188,118.17852783203125 L530.7216796875,121.10030364990234 L531.02978515625,123.85281372070312 L531.4120483398438,126.28604888916016 L531.7974243164062,128.27291870117188 L532.126220703125,129.72911071777344 L532.3458251953125,130.60491943359375 L532.4559326171875,131.00347900390625 M525.2482299804688,118.27517700195312 L525.3311157226562,118.24937438964844 L525.6824951171875,118.196044921875 L526.449462890625,118.11007690429688 L527.7078247070312,117.99960327148438 L529.3967895507812,117.8719711303711 L531.37158203125,117.74066925048828 L533.457275390625,117.6156234741211 L535.4973754882812,117.49609375 L537.3155517578125,117.37847900390625 L538.797607421875,117.26396942138672 L539.7925415039062,117.17161560058594 L540.3096923828125,117.11284637451172 M546.052978515625,117.70356750488281 L546.0042724609375,117.47106170654297 L545.80908203125,117.08965301513672 L545.3677978515625,116.64351654052734 L544.6256103515625,116.31029510498047 L543.6004028320312,116.2275161743164 L542.3599853515625,116.50025939941406 L541.029296875,117.1590805053711 L539.7791137695312,118.18305969238281 L538.7593383789062,119.48907470703125 L538.1129760742188,120.94938659667969 L537.9161987304688,122.40222930908203 L538.1728515625,123.67826080322266 L538.8355102539062,124.618896484375 L539.8291015625,125.11947631835938 L541.0331420898438,125.11351776123047 L542.3412475585938,124.58295440673828 L543.6346435546875,123.56674194335938 L544.810791015625,122.17001342773438 L545.7835693359375,120.54679870605469 L546.4935302734375,118.90506744384766 L546.9273681640625,117.44528198242188 L547.1237182617188,116.30792236328125 L547.1511840820312,115.59191131591797 L547.09130859375,115.35649108886719 L547.014404296875,115.6250991821289 L546.96142578125,116.40938568115234 L546.9615478515625,117.66073608398438 L547.0289916992188,119.24102020263672 L547.1797485351562,120.98710632324219 L547.426025390625,122.71932983398438 L547.7881469726562,124.28876495361328 L548.3328247070312,125.53893280029297 L549.0859985351562,126.34941101074219 L550.0166015625,126.66128540039062 L550.8602294921875,126.63728332519531 L551.4364013671875,126.4747085571289 M558.8760986328125,115.79234313964844 L558.5621948242188,115.46186065673828 L557.9122314453125,115.04901885986328 L556.9067993164062,114.72883605957031 L555.6640625,114.7031478881836 L554.35107421875,114.9945297241211 L553.1824340820312,115.55872344970703 L552.3385009765625,116.30095672607422 L551.9588012695312,117.16101837158203 L552.1198120117188,118.08123779296875 L552.826416015625,118.99535369873047 L554.0185546875,119.85318756103516 L555.5862426757812,120.62889862060547 L557.3363647460938,121.31764221191406 L559.043701171875,121.93206787109375 L560.4842529296875,122.48167419433594 L561.479248046875,122.96640014648438 L561.9156494140625,123.38031768798828 L561.7735595703125,123.73159790039062 L561.0975341796875,124.03155517578125 L559.9911499023438,124.29064178466797 L558.5950927734375,124.49871063232422 L557.074951171875,124.64418029785156 L555.5797729492188,124.71875762939453 L554.2855224609375,124.7016830444336 L553.3453979492188,124.58721160888672 L552.8436889648438,124.38739776611328 L552.6895751953125,124.1778793334961 L552.7305297851562,124.01973724365234 M568.2654418945312,105.52722930908203 L568.24951171875,105.72627258300781 L568.2286376953125,106.22383117675781 L568.2149047851562,107.12353515625 L568.2098388671875,108.44099426269531 L568.1968994140625,110.14269256591797 L568.1575927734375,112.15323638916016 L568.08154296875,114.37227630615234 L567.994384765625,116.68616485595703 L567.9404296875,118.96258544921875 L567.9498291015625,121.04702758789062 L568.0247192382812,122.82584381103516 L568.1324462890625,124.17012023925781 L568.2222900390625,125.00930786132812 L568.2655029296875,125.34918975830078 L568.267333984375,125.3640365600586 L568.2489013671875,125.24018859863281 M564.6685791015625,116.3145751953125 L564.9813842773438,116.13568115234375 L565.7572631835938,115.86214447021484 L567.0926513671875,115.54952239990234 L568.9593505859375,115.30174255371094 L571.125732421875,115.14451599121094 L573.334716796875,115.08672332763672 L575.0726318359375,115.08577728271484 L576.126220703125,115.10589599609375 " fill="none" stroke="black" stroke-linecap="round" stroke-width="2" /><path d="M0,0 M457.70037841796875,169.7367706298828 L457.7066345214844,170.57705688476562 L457.7314147949219,172.0745086669922 L457.759765625,174.1833038330078 L457.78253173828125,176.64488220214844 L457.8037414550781,179.33485412597656 L457.8354797363281,182.0939178466797 L457.9108581542969,184.79441833496094 L458.04815673828125,187.22731018066406 L458.223876953125,189.2042694091797 L458.41448974609375,190.6040802001953 L458.57196044921875,191.40179443359375 L458.6670837402344,191.72311401367188 M450.18682861328125,169.28665161132812 L450.2874450683594,169.1660614013672 L450.6918029785156,168.95748901367188 L451.573486328125,168.66729736328125 L453.0203857421875,168.32322692871094 L454.98272705078125,167.93069458007812 L457.3320617675781,167.48980712890625 L459.8949279785156,167.0006561279297 L462.4928894042969,166.48587036132812 L464.9025573730469,165.9793701171875 L466.9176025390625,165.52015686035156 L468.2886962890625,165.18704223632812 L469.0049743652344,165.0 M453.0733337402344,178.29908752441406 L453.4905700683594,178.4468536376953 L454.36114501953125,178.58224487304688 L455.7210998535156,178.60894775390625 L457.5096130371094,178.4340057373047 L459.58941650390625,178.11444091796875 L461.7766418457031,177.7429656982422 L463.5594787597656,177.44454956054688 L464.68603515625,177.269287109375 M471.67620849609375,178.98243713378906 L471.6136474609375,178.77691650390625 L471.3860778808594,178.46739196777344 L470.900634765625,178.15464782714844 L470.11767578125,178.02459716796875 L469.0711669921875,178.22552490234375 L467.8642272949219,178.8531036376953 L466.6388244628906,179.9209442138672 L465.536865234375,181.3636016845703 L464.7112121582031,183.0445556640625 L464.29052734375,184.7849578857422 L464.34906005859375,186.39398193359375 L464.8874206542969,187.6693572998047 L465.8424987792969,188.44854736328125 L467.0946960449219,188.6253662109375 L468.5106201171875,188.17991638183594 L469.95489501953125,187.16796875 L471.3092041015625,185.70669555664062 L472.4659423828125,183.93943786621094 L473.3550720214844,182.033935546875 L473.942626953125,180.18174743652344 L474.2430725097656,178.5705108642578 L474.31585693359375,177.34934997558594 L474.2329406738281,176.61033630371094 L474.0581359863281,176.38540649414062 L473.83935546875,176.66366577148438 L473.6039733886719,177.4390106201172 L473.3955383300781,178.65882873535156 L473.2773132324219,180.24070739746094 L473.29693603515625,182.05227661132812 L473.478759765625,183.92066955566406 L473.801513671875,185.6708984375 L474.24334716796875,187.14059448242188 L474.7676696777344,188.1935577392578 L475.35137939453125,188.79563903808594 L475.8517150878906,189.03683471679688 L476.1861267089844,189.06475830078125 M483.5155334472656,177.8376922607422 L483.2249755859375,177.5802459716797 L482.6714172363281,177.31166076660156 L481.84857177734375,177.21548461914062 L480.8603820800781,177.5089111328125 L479.8118896484375,178.23316955566406 L478.84027099609375,179.35086059570312 L478.0809020996094,180.73663330078125 L477.67279052734375,182.24575805664062 L477.70770263671875,183.7086944580078 L478.2325439453125,184.97398376464844 L479.2394104003906,185.93844604492188 L480.66693115234375,186.52578735351562 L482.3584289550781,186.7351837158203 L484.1039123535156,186.62643432617188 L485.4902648925781,186.38648986816406 L486.32708740234375,186.16693115234375 M486.5429992675781,183.78636169433594 L486.7577819824219,183.82101440429688 L487.22271728515625,183.77684020996094 L487.9728698730469,183.5552215576172 L488.97369384765625,183.07435607910156 L490.1578369140625,182.33096313476562 L491.4137268066406,181.36109924316406 L492.6109924316406,180.24530029296875 L493.60150146484375,179.071044921875 L494.2370910644531,177.93634033203125 L494.44049072265625,176.95054626464844 L494.1842956542969,176.21885681152344 L493.5146789550781,175.84280395507812 L492.5386047363281,175.91529846191406 L491.3827209472656,176.4706268310547 L490.1937255859375,177.482666015625 L489.149169921875,178.86395263671875 L488.4140625,180.4732666015625 L488.1212463378906,182.14913940429688 L488.33294677734375,183.73806762695312 L489.12493896484375,185.08123779296875 L490.4427185058594,186.06112670898438 L492.1535949707031,186.63792419433594 L493.7172546386719,186.8833770751953 L494.7864990234375,186.92759704589844 M503.0362548828125,175.9287567138672 L502.6278076171875,175.73785400390625 L501.8839111328125,175.58612060546875 L500.833740234375,175.6282958984375 L499.665283203125,176.01490783691406 L498.53338623046875,176.72129821777344 L497.6441955566406,177.6661376953125 L497.15997314453125,178.72373962402344 L497.1914367675781,179.80906677246094 L497.7547607421875,180.8451385498047 L498.8026123046875,181.78875732421875 L500.20965576171875,182.62362670898438 L501.79754638671875,183.36105346679688 L503.3365478515625,184.00436401367188 L504.6055603027344,184.57568359375 L505.4117736816406,185.08790588378906 L505.6576232910156,185.5624542236328 L505.34564208984375,186.01795959472656 L504.5283203125,186.46119689941406 L503.3148498535156,186.8738250732422 L501.8699645996094,187.2273712158203 L500.3892822265625,187.4838104248047 L499.0801086425781,187.63099670410156 L498.1689758300781,187.68844604492188 L497.6871337890625,187.6934356689453 M515.7767333984375,177.6727752685547 L515.786376953125,178.44107055664062 L515.80126953125,179.7942352294922 L515.8341674804688,181.68582153320312 L515.8914184570312,183.8747100830078 L515.9837646484375,186.26535034179688 L516.1130981445312,188.72433471679688 L516.2574462890625,191.1042938232422 L516.402587890625,193.20265197753906 L516.5567626953125,194.87539672851562 L516.6897583007812,196.0131378173828 L516.7771606445312,196.58079528808594 L516.7974243164062,196.5747833251953 L516.7249755859375,196.00906372070312 L516.5745849609375,194.90264892578125 L516.3870849609375,193.3494873046875 L516.1694946289062,191.44810485839844 L515.9470825195312,189.32833862304688 L515.7622680664062,187.09848022460938 L515.6605834960938,184.85128784179688 L515.7092895507812,182.6633758544922 L515.9589233398438,180.6250457763672 L516.4340209960938,178.81777954101562 L517.12890625,177.32089233398438 L518.0303955078125,176.18728637695312 L519.0999755859375,175.45159912109375 L520.294189453125,175.1464080810547 L521.5460815429688,175.26141357421875 L522.7687377929688,175.77459716796875 L523.8326416015625,176.6298065185547 L524.6128540039062,177.73194885253906 L525.00048828125,178.96189880371094 L524.9450073242188,180.20774841308594 L524.4678344726562,181.34671020507812 L523.6473388671875,182.30238342285156 L522.5961303710938,183.0341033935547 L521.4462890625,183.51983642578125 L520.3433227539062,183.7743377685547 L519.415283203125,183.84176635742188 L518.7886352539062,183.80523681640625 L518.467529296875,183.74386596679688 M534.0819091796875,176.97671508789062 L533.9515991210938,176.6422576904297 L533.62353515625,176.16363525390625 L533.0252685546875,175.6915740966797 L532.1531982421875,175.4686279296875 L531.0748291015625,175.63116455078125 L529.9061279296875,176.23483276367188 L528.809326171875,177.23602294921875 L527.97119140625,178.52114868164062 L527.5308837890625,179.8999786376953 L527.5733032226562,181.16700744628906 L528.104248046875,182.1495361328125 L529.0400390625,182.7110137939453 L530.2689208984375,182.79518127441406 L531.66259765625,182.3907012939453 L533.0773315429688,181.5306396484375 L534.3863525390625,180.3011016845703 L535.473876953125,178.84823608398438 L536.2481079101562,177.36117553710938 L536.6880493164062,176.04006958007812 L536.813232421875,175.0374298095703 L536.694580078125,174.45831298828125 L536.411865234375,174.34783935546875 L536.0491333007812,174.72935485839844 L535.6768798828125,175.59747314453125 L535.3816528320312,176.8758544921875 L535.247314453125,178.4232635498047 L535.335205078125,180.06114196777344 L535.7003173828125,181.57540893554688 L536.340576171875,182.79197692871094 L537.1844482421875,183.6182098388672 L537.9579467773438,184.05703735351562 L538.4908447265625,184.2139434814453 M546.86669921875,173.24465942382812 L546.525146484375,173.0305633544922 L545.8543090820312,172.84326171875 L544.8302001953125,172.8505859375 L543.5750732421875,173.21974182128906 L542.2412719726562,173.93179321289062 L541.053466796875,174.8797607421875 L540.2457885742188,175.90237426757812 L540.01806640625,176.87530517578125 L540.4696044921875,177.69271850585938 L541.6114501953125,178.30584716796875 L543.3260498046875,178.72515869140625 L545.40380859375,179.01686096191406 L547.54833984375,179.26951599121094 L549.4468383789062,179.5668182373047 L550.828125,179.94818115234375 L551.548095703125,180.41331481933594 L551.572021484375,180.9318084716797 L550.9690551757812,181.47280883789062 L549.8538208007812,182.00250244140625 L548.36865234375,182.49546813964844 L546.71240234375,182.92662048339844 L545.115478515625,183.2847442626953 L543.9116821289062,183.5319061279297 L543.2227172851562,183.6690216064453 M559.066650390625,172.69712829589844 L558.5209350585938,172.5956573486328 L557.577392578125,172.55738830566406 L556.335693359375,172.6872100830078 L555.0631103515625,173.07859802246094 L553.9630737304688,173.7031707763672 L553.2390747070312,174.4807586669922 L553.0383911132812,175.31906127929688 L553.4655151367188,176.1596221923828 L554.5302124023438,176.94497680664062 L556.12939453125,177.6537628173828 L558.078857421875,178.2896270751953 L560.1328125,178.8795623779297 L562.0391845703125,179.4575653076172 L563.5885009765625,180.04666137695312 L564.6160888671875,180.64385986328125 L565.0158081054688,181.2301025390625 L564.7396240234375,181.79005432128906 L563.80078125,182.31015014648438 L562.2992553710938,182.76852416992188 L560.4032592773438,183.12957763671875 L558.3656005859375,183.36550903320312 L556.4580688476562,183.47164916992188 L555.0509643554688,183.48995971679688 L554.2559204101562,183.47146606445312 " fill="none" stroke="black" stroke-linecap="round" stroke-width="2" /><path d="M0,0 M397.86920166015625,251.30540466308594 M398.5677795410156,248.4212646484375 L398.817138671875,247.50332641601562 L399.2545166015625,245.91029357910156 L399.8572082519531,243.74432373046875 L400.541259765625,241.34121704101562 L401.26568603515625,238.8560028076172 L401.9830322265625,236.4476318359375 L402.65826416015625,234.24827575683594 L403.2450866699219,232.42665100097656 L403.71575927734375,231.11080932617188 L404.07684326171875,230.3983612060547 L404.3583984375,230.34298706054688 L404.60589599609375,230.96730041503906 L404.85076904296875,232.28097534179688 L405.09844970703125,234.24520874023438 L405.34326171875,236.75653076171875 L405.59051513671875,239.67051696777344 L405.85113525390625,242.79002380371094 L406.1268615722656,245.89553833007812 L406.3994140625,248.79348754882812 L406.6451721191406,251.28390502929688 L406.8465576171875,253.22225952148438 L406.9902038574219,254.46925354003906 L407.07794189453125,255.08657836914062 L407.1174011230469,255.2607879638672 M398.51434326171875,243.60597229003906 L398.7065734863281,243.67724609375 L399.1615905761719,243.76197814941406 L399.973388671875,243.8303985595703 L401.18121337890625,243.81800842285156 L402.7135314941406,243.70925903320312 L404.39141845703125,243.50125122070312 L405.7771911621094,243.28465270996094 L406.6413269042969,243.1180419921875 M411.07464599609375,241.8433074951172 L410.9842529296875,242.37765502929688 L410.8609619140625,243.34701538085938 L410.73602294921875,244.71688842773438 L410.65716552734375,246.3053741455078 L410.64129638671875,247.99937438964844 L410.6929016113281,249.64703369140625 L410.7873840332031,251.10809326171875 L410.91473388671875,252.24649047851562 L411.04052734375,252.94041442871094 L411.1436767578125,253.1110382080078 L411.22412109375,252.71243286132812 L411.31744384765625,251.747314453125 L411.4681701660156,250.30079650878906 L411.7415771484375,248.53652954101562 L412.1824035644531,246.64859008789062 L412.8149719238281,244.82862854003906 L413.60821533203125,243.2250518798828 L414.5219421386719,241.9553680419922 L415.48785400390625,241.12191772460938 L416.4455871582031,240.80276489257812 L417.3414306640625,241.04367065429688 L418.12786865234375,241.83010864257812 L418.74853515625,243.09080505371094 L419.1801452636719,244.69557189941406 L419.4335021972656,246.4845428466797 L419.5522155761719,248.2806854248047 L419.6015319824219,249.92132568359375 L419.70001220703125,251.20335388183594 L419.93878173828125,251.99179077148438 L420.3604736328125,252.22718811035156 L420.81671142578125,252.1123504638672 L421.1700134277344,251.88192749023438 M430.3141174316406,244.87960815429688 L430.25738525390625,244.29632568359375 L430.02423095703125,243.38893127441406 L429.52685546875,242.3359832763672 L428.72845458984375,241.45150756835938 L427.6863708496094,240.89938354492188 L426.4969482421875,240.7803497314453 L425.2723083496094,241.11859130859375 L424.1302490234375,241.9334259033203 L423.1937255859375,243.17611694335938 L422.5623474121094,244.7290496826172 L422.3165283203125,246.4493408203125 L422.4765930175781,248.14874267578125 L423.0133361816406,249.63954162597656 L423.8606872558594,250.76437377929688 L424.9238586425781,251.377685546875 L426.0971984863281,251.36306762695312 L427.3065185546875,250.6709442138672 L428.48748779296875,249.3061065673828 L429.5984802246094,247.35658264160156 L430.61212158203125,244.97010803222656 L431.4956359863281,242.31703186035156 L432.2232666015625,239.58029174804688 L432.7786560058594,236.94419860839844 L433.14666748046875,234.57928466796875 L433.3443298339844,232.63766479492188 L433.4164733886719,231.2140350341797 L433.4110412597656,230.37277221679688 L433.3836975097656,230.163818359375 L433.3487548828125,230.6061248779297 L433.291259765625,231.70574951171875 L433.2154846191406,233.41461181640625 L433.13360595703125,235.60031127929688 L433.0770263671875,238.1061248779297 L433.0821838378906,240.75250244140625 L433.16961669921875,243.34759521484375 L433.3375549316406,245.71859741210938 L433.5863037109375,247.7249755859375 L433.89422607421875,249.26809692382812 L434.2370910644531,250.33615112304688 L434.58563232421875,250.89035034179688 L434.9244384765625,250.94976806640625 L435.2414855957031,250.56874084472656 L435.4869689941406,250.03778076171875 L435.63934326171875,249.59048461914062 M451.22894287109375,229.58743286132812 L451.2413330078125,229.86856079101562 L451.2471618652344,230.50466918945312 L451.234130859375,231.5792236328125 L451.1849670410156,233.06076049804688 L451.1117248535156,234.89370727539062 L451.0406494140625,236.9805450439453 L450.9647216796875,239.22731018066406 L450.8828430175781,241.53164672851562 L450.783203125,243.76528930664062 L450.64849853515625,245.77830505371094 L450.505615234375,247.47239685058594 L450.4134521484375,248.74234008789062 L450.4052429199219,249.54689025878906 L450.49749755859375,249.9031982421875 L450.63006591796875,249.959228515625 L450.73822021484375,249.873779296875 M455.9434509277344,225.0 L456.04364013671875,225.2930145263672 L456.20263671875,225.9971466064453 L456.38104248046875,227.16893005371094 L456.51531982421875,228.75697326660156 L456.58380126953125,230.56683349609375 L456.60626220703125,232.4047088623047 L456.6092529296875,233.85836791992188 L456.6123046875,234.7545623779297 M459.4044189453125,242.906005859375 L459.3756103515625,243.77847290039062 L459.32373046875,245.21923828125 L459.262939453125,247.0346221923828 L459.2248229980469,248.79335021972656 L459.2344055175781,250.2812957763672 L459.28851318359375,251.3499298095703 L459.3722229003906,251.93045043945312 L459.4734802246094,251.96533203125 L459.60565185546875,251.42555236816406 L459.80841064453125,250.31007385253906 L460.1341857910156,248.71217346191406 L460.63409423828125,246.8322296142578 L461.3301696777344,244.90101623535156 L462.2247619628906,243.1537322998047 L463.2727355957031,241.75613403320312 L464.4102783203125,240.80088806152344 L465.54449462890625,240.32867431640625 L466.6087646484375,240.3699493408203 L467.5196533203125,240.9174041748047 L468.2120666503906,241.92910766601562 L468.6263732910156,243.29678344726562 L468.76434326171875,244.8574676513672 L468.6601257324219,246.3813018798828 L468.43243408203125,247.68777465820312 L468.1883544921875,248.61781311035156 L468.02716064453125,249.07347106933594 L468.0225524902344,248.9979248046875 L468.2389831542969,248.38055419921875 L468.7250671386719,247.25637817382812 L469.5108642578125,245.78858947753906 L470.5700988769531,244.18482971191406 L471.8165588378906,242.6800079345703 L473.1338195800781,241.46633911132812 L474.4048156738281,240.68386840820312 L475.547119140625,240.40969848632812 L476.4955749511719,240.6936492919922 L477.22796630859375,241.530029296875 L477.72003173828125,242.84979248046875 L477.98809814453125,244.51992797851562 L478.0783386230469,246.37396240234375 L478.0830383300781,248.22955322265625 L478.1036376953125,249.92822265625 L478.22442626953125,251.3507080078125 L478.49517822265625,252.366455078125 L478.91632080078125,252.90585327148438 L479.4415588378906,252.971923828125 L479.910888671875,252.77413940429688 L480.2291259765625,252.52389526367188 M490.277587890625,231.29832458496094 L490.3115234375,231.6263427734375 L490.3406982421875,232.354736328125 L490.339599609375,233.57765197753906 L490.2899475097656,235.25753784179688 L490.20880126953125,237.31568908691406 L490.10919189453125,239.62399291992188 L490.0113220214844,242.01512145996094 L489.9239501953125,244.30075073242188 L489.8631286621094,246.30149841308594 L489.84234619140625,247.86038208007812 L489.8828125,248.88211059570312 L489.99737548828125,249.31015014648438 L490.21246337890625,249.12132263183594 L490.5718078613281,248.34498596191406 L491.12762451171875,247.07447814941406 L491.9095458984375,245.47900390625 L492.9180908203125,243.78543090820312 L494.09613037109375,242.20660400390625 L495.34210205078125,240.91677856445312 L496.54205322265625,240.0279083251953 L497.5880432128906,239.59524536132812 L498.4056091308594,239.64501953125 L498.9531555175781,240.18472290039062 L499.2255554199219,241.19281005859375 L499.22833251953125,242.60562133789062 L499.0052795410156,244.29269409179688 L498.650390625,246.08897399902344 L498.3127136230469,247.79734802246094 L498.1229248046875,249.227783203125 L498.1668701171875,250.25863647460938 L498.3417663574219,250.8544921875 L498.52587890625,251.09877014160156 M510.01116943359375,242.5836639404297 L509.90582275390625,242.13693237304688 L509.6070251464844,241.49874877929688 L509.0263366699219,240.85227966308594 L508.1277160644531,240.48629760742188 L506.93670654296875,240.52442932128906 L505.55108642578125,241.02613830566406 L504.1180725097656,241.96131896972656 L502.8071594238281,243.2823944091797 L501.79095458984375,244.871337890625 L501.2083740234375,246.5706329345703 L501.1327209472656,248.18768310546875 L501.5797119140625,249.53855895996094 L502.504150390625,250.4579315185547 L503.8072204589844,250.85540771484375 L505.35357666015625,250.681640625 L506.9892578125,249.95640563964844 L508.5421447753906,248.7552490234375 L509.8518371582031,247.22036743164062 L510.79742431640625,245.5346221923828 L511.2989501953125,243.89122009277344 L511.37158203125,242.44419860839844 L511.120361328125,241.29107666015625 L510.77593994140625,240.52992248535156 L510.50537109375,240.13467407226562 M514.576904296875,239.89881896972656 L514.5550537109375,240.3776092529297 L514.496337890625,241.28704833984375 L514.4072875976562,242.6280975341797 L514.300048828125,244.23667907714844 L514.2183837890625,245.97647094726562 L514.175048828125,247.6521759033203 L514.1630859375,249.08731079101562 L514.165771484375,250.1165008544922 L514.175048828125,250.62594604492188 L514.1824951171875,250.54620361328125 L514.2429809570312,249.88583374023438 L514.40625,248.6785430908203 L514.7479248046875,247.06236267089844 L515.331787109375,245.23504638671875 L516.1748657226562,243.41275024414062 L517.2280883789062,241.78758239746094 L518.41552734375,240.5149383544922 L519.6232299804688,239.66708374023438 L520.7687377929688,239.3029327392578 L521.779296875,239.4550018310547 L522.5784912109375,240.1182098388672 L523.09814453125,241.25238037109375 L523.3043212890625,242.76585388183594 L523.21923828125,244.4687957763672 L522.935546875,246.1228790283203 L522.578125,247.51048278808594 L522.2440795898438,248.45814514160156 L522.0108642578125,248.86651611328125 L521.915283203125,248.71092224121094 L522.0047607421875,247.9943084716797 L522.326904296875,246.7765655517578 L522.9181518554688,245.2032928466797 L523.77734375,243.46815490722656 L524.875732421875,241.77032470703125 L526.119140625,240.2929229736328 L527.419677734375,239.1693878173828 L528.671142578125,238.4904327392578 L529.767578125,238.3044891357422 L530.6287841796875,238.63067626953125 L531.2164306640625,239.44732666015625 L531.5044555664062,240.7027130126953 L531.5185546875,242.31227111816406 L531.3108520507812,244.1521453857422 L530.9813842773438,246.0518341064453 L530.652099609375,247.8081817626953 L530.4450073242188,249.2401885986328 L530.3704833984375,250.1825714111328 L530.3846435546875,250.65167236328125 M532.404052734375,247.01083374023438 L532.509033203125,247.04696655273438 L532.7947998046875,247.0689239501953 L533.3347778320312,247.0106658935547 L534.1519775390625,246.7906951904297 L535.1875610351562,246.33773803710938 L536.3526611328125,245.63262939453125 L537.518798828125,244.690673828125 L538.55859375,243.56175231933594 L539.3643798828125,242.33226013183594 L539.868408203125,241.12289428710938 L540.0082397460938,240.06365966796875 L539.75732421875,239.28179931640625 L539.12646484375,238.8871612548828 L538.169189453125,238.95555114746094 L536.9999389648438,239.5198211669922 L535.7899169921875,240.5586700439453 L534.7177734375,241.99090576171875 L533.9398193359375,243.6705780029297 L533.5619506835938,245.42254638671875 L533.6358642578125,247.0828857421875 L534.1536254882812,248.5028076171875 L535.0847778320312,249.57876586914062 L536.355712890625,250.25888061523438 L537.9161376953125,250.4917449951172 L539.6380615234375,250.29237365722656 L541.37646484375,249.75074768066406 L542.7515869140625,249.14955139160156 L543.595947265625,248.69810485839844 M545.0982666015625,243.57034301757812 L545.4465942382812,243.62051391601562 L546.1680908203125,243.656982421875 L547.2796630859375,243.64413452148438 L548.701904296875,243.5369110107422 L550.2945556640625,243.3483123779297 L551.9019165039062,243.1092071533203 L553.1719360351562,242.89906311035156 L553.9528198242188,242.75881958007812 M561.7532348632812,230.56341552734375 L561.81201171875,230.64686584472656 L561.8800048828125,230.9754638671875 L561.9041748046875,231.7073516845703 L561.81982421875,232.9417724609375 L561.5980224609375,234.67491149902344 L561.234619140625,236.81256103515625 L560.775390625,239.19943237304688 L560.2828369140625,241.65989685058594 L559.8248291015625,243.99215698242188 L559.464111328125,246.0076141357422 L559.2127685546875,247.5861053466797 L559.0645751953125,248.65966796875 L559.0110473632812,249.2011260986328 L559.0343627929688,249.20875549316406 L559.148193359375,248.67393493652344 L559.394287109375,247.6270751953125 L559.8067626953125,246.20834350585938 L560.4479370117188,244.6192626953125 L561.3667602539062,243.0555877685547 L562.5665893554688,241.68002319335938 L564.0030517578125,240.5985565185547 L565.5714111328125,239.8761749267578 L567.1358032226562,239.58782958984375 L568.5704956054688,239.7805633544922 L569.77001953125,240.43380737304688 L570.6654052734375,241.4822998046875 L571.19580078125,242.822021484375 L571.3128051757812,244.31845092773438 L570.9918212890625,245.83642578125 L570.238037109375,247.24371337890625 L569.0953979492188,248.41835021972656 L567.6639404296875,249.28689575195312 L566.0525512695312,249.82394409179688 L564.4010620117188,250.05419921875 L562.8335571289062,250.02957153320312 L561.5223388671875,249.78338623046875 L560.6102905273438,249.35638427734375 L560.18994140625,248.80299377441406 L560.1296997070312,248.296875 L560.2472534179688,247.95196533203125 M577.83740234375,241.1661834716797 L577.6359252929688,240.87538146972656 L577.24462890625,240.53465270996094 L576.64111328125,240.32675170898438 L575.862060546875,240.48855590820312 L574.9414672851562,241.09585571289062 L573.9708251953125,242.15469360351562 L573.064697265625,243.56918334960938 L572.3792114257812,245.21127319335938 L572.0408935546875,246.8867645263672 L572.142578125,248.391357421875 L572.7174072265625,249.54603576660156 L573.7386474609375,250.22323608398438 L575.100830078125,250.36404418945312 L576.654541015625,249.97116088867188 L578.1957397460938,249.09400939941406 L579.5424194335938,247.85043334960938 L580.51953125,246.38919067382812 L581.009033203125,244.8670654296875 L580.9550170898438,243.44720458984375 L580.378173828125,242.24929809570312 L579.4208984375,241.34901428222656 L578.3274536132812,240.7816162109375 L577.337158203125,240.49891662597656 L576.7589111328125,240.41053771972656 L576.773681640625,240.4152374267578 L577.3785400390625,240.43238830566406 L578.1871337890625,240.433837890625 L578.8600463867188,240.42662048339844 M585.6341552734375,239.882080078125 L585.5221557617188,240.10890197753906 L585.2725830078125,240.62905883789062 L584.87109375,241.5308074951172 L584.3847045898438,242.80763244628906 L583.919921875,244.39715576171875 L583.6028442382812,246.12991333007812 L583.551025390625,247.80621337890625 L583.8366088867188,249.21603393554688 L584.452880859375,250.187744140625 L585.3585205078125,250.61886596679688 L586.4683227539062,250.4663848876953 L587.6925048828125,249.7353973388672 L588.9620361328125,248.50108337402344 L590.2218017578125,246.89657592773438 L591.3809814453125,245.09991455078125 L592.3676147460938,243.3455810546875 L593.1197509765625,241.8312530517578 L593.6202392578125,240.6942901611328 L593.8846435546875,240.02334594726562 L593.9586181640625,239.87655639648438 L593.8600463867188,240.27737426757812 L593.6148681640625,241.24815368652344 L593.2654418945312,242.71035766601562 L592.9039916992188,244.47911071777344 L592.630126953125,246.31703186035156 L592.546630859375,247.983642578125 L592.6952514648438,249.2943878173828 L593.1119995117188,250.06814575195312 L593.7667236328125,250.2203369140625 L594.597900390625,249.76876831054688 L595.3470458984375,249.08839416503906 L595.8571166992188,248.50099182128906 M598.3892211914062,240.39419555664062 L598.3426513671875,240.57489013671875 L598.2376708984375,241.05630493164062 L598.062744140625,241.93507385253906 L597.8305053710938,243.17515563964844 L597.580810546875,244.62583923339844 L597.360595703125,246.07864379882812 L597.21240234375,247.34544372558594 L597.153564453125,248.27862548828125 L597.1879272460938,248.78160095214844 L597.2994995117188,248.78732299804688 L597.4929809570312,248.27761840820312 L597.799072265625,247.28353881835938 L598.2703857421875,245.93118286132812 L598.9615478515625,244.39755249023438 L599.9083251953125,242.87625122070312 L601.0841064453125,241.54132080078125 L602.410400390625,240.52670288085938 L603.7855224609375,239.91317749023438 L605.1057739257812,239.75006103515625 L606.2750244140625,240.04254150390625 L607.2122802734375,240.74986267089844 L607.8652954101562,241.79286193847656 L608.200439453125,243.05560302734375 L608.2489624023438,244.41030883789062 L608.0927734375,245.7351837158203 L607.8234252929688,246.9322509765625 L607.5809326171875,247.90115356445312 L607.4837646484375,248.5745086669922 L607.5855712890625,248.91885375976562 L607.7916259765625,249.01577758789062 L607.9947509765625,248.98292541503906 M617.14794921875,243.3472900390625 L617.0274658203125,242.99655151367188 L616.7553100585938,242.4913787841797 L616.274169921875,241.9656219482422 L615.560546875,241.6241912841797 L614.616943359375,241.55462646484375 L613.4884033203125,241.81407165527344 L612.2651977539062,242.41416931152344 L611.0949096679688,243.35194396972656 L610.125,244.55963134765625 L609.4810180664062,245.90548706054688 L609.2529296875,247.23568725585938 L609.48583984375,248.37081909179688 L610.188232421875,249.15016174316406 L611.3361206054688,249.4499969482422 L612.83837890625,249.1732940673828 L614.55126953125,248.2734832763672 L616.3067626953125,246.77340698242188 L617.9764404296875,244.74197387695312 L619.4697875976562,242.32191467285156 L620.7362060546875,239.7081298828125 L621.7334594726562,237.10743713378906 L622.4415893554688,234.7315673828125 L622.8607177734375,232.74400329589844 L623.03662109375,231.2537841796875 L623.0159301757812,230.35159301757812 L622.84375,230.09457397460938 L622.5526123046875,230.50706481933594 L622.1893310546875,231.5880889892578 L621.8009033203125,233.24488830566406 L621.4427490234375,235.32864379882812 L621.1607666015625,237.678955078125 L620.986572265625,240.1190948486328 L620.9424438476562,242.48086547851562 L621.0476684570312,244.62779235839844 L621.300048828125,246.4398651123047 L621.69482421875,247.8137664794922 L622.1962280273438,248.70909118652344 L622.7477416992188,249.14291381835938 L623.2068481445312,249.25527954101562 L623.4990234375,249.2109375 " fill="none" stroke="black" stroke-linecap="round" stroke-width="2" /></svg>